<?xml version="1.0" encoding="iso-8859-1"?>
<!-- Generator: Adobe Illustrator 19.0.0, SVG Export Plug-In . SVG Version: 6.00 Build 0)  -->
<svg version="1.1" id="Capa_1" xmlns="http://www.w3.org/2000/svg" xmlns:xlink="http://www.w3.org/1999/xlink" x="0px" y="0px"
	 viewBox="0 0 511.997 511.997" style="enable-background:new 0 0 511.997 511.997;" xml:space="preserve">
<g>
	<path style="fill:#D3D6DB;" d="M477.721,400.813h-34.112l-51.168,12.792l-63.107-63.107c-3.411-3.411-6.822-7.675-9.381-12.792l0,0
		c-2.558-5.97-4.264-13.645-4.264-20.467v-71.635c-27.289,18.761-60.548,28.142-93.807,27.289c-26.437,0-52.873-5.97-76.751-17.056
		v46.051c0,23.025,5.97,46.051,17.056,65.665l25.584,46.051c5.97,11.086,13.645,21.32,22.173,29.848l44.345,44.345
		c16.203,16.203,41.787,19.614,61.401,8.528l25.584-14.497l0.853-0.853c13.645,9.381,31.553,11.086,47.756,5.117l53.726-21.32
		v-4.264l4.264,11.939c2.558,7.675,10.234,13.645,18.761,13.645l0,0c11.086,0,19.614-8.528,19.614-19.614l0,0v-57.137
		C486.249,404.224,482.837,400.813,477.721,400.813z"/>
	<path style="fill:#D3D6DB;" d="M145.984,318.092c0,0,0-0.853,0-1.706c0-2.558-0.853-4.264-0.853-6.822s0-5.117,0-8.528v-45.198l0,0
		h-0.853l-50.315,9.381l-46.051,9.381c-17.909,3.411-28.995,20.467-26.437,37.523c4.264,17.909,20.467,28.995,38.376,26.437
		l88.69-5.117C147.69,328.325,146.837,323.209,145.984,318.092z"/>
	<path style="fill:#D3D6DB;" d="M430.817,202.965l-29.848,5.117l-57.99,10.234c-1.706,1.706-3.411,4.264-5.117,5.97
		c-0.853,0.853-1.706,1.706-1.706,2.558c-1.706,1.706-3.411,3.411-5.117,5.117c-0.853,0.853-1.706,0.853-1.706,1.706
		c-4.264,4.264-8.528,7.675-13.645,11.086v51.168l85.279-20.467l41.787-10.234c17.909-3.411,28.995-20.467,26.437-37.523
		C465.782,211.493,448.726,199.554,430.817,202.965L430.817,202.965z"/>
	<path style="fill:#D3D6DB;" d="M400.969,110.863c0-9.381-7.675-17.056-17.056-17.056h-27.289c3.411,7.675,5.97,15.35,7.675,23.878
		c0,0.853,0,1.706,0,2.558c0.853,3.411,0.853,6.822,1.706,10.234c0.853,5.117,0.853,9.381,0.853,14.497
		c0,4.264,0,8.528-0.853,12.792c0,1.706,0,2.558-0.853,4.264c0,2.558-0.853,5.97-1.706,8.528c0,1.706-0.853,3.411-0.853,4.264
		c-0.853,2.558-1.706,5.117-2.558,8.528c-0.853,3.411-1.706,5.117-2.558,7.675c-0.853,1.706-0.853,3.411-1.706,5.117
		c-0.853,2.558-1.706,4.264-3.411,6.822c-0.853,0.853-0.853,1.706-1.706,2.558c-2.558,4.264-5.117,9.381-8.528,12.792l57.99-10.234
		v-97.218H400.969z"/>
	<path style="fill:#D3D6DB;" d="M315.69,317.239c0,2.558,0,5.117,0.853,6.822h67.371c9.381,0,17.056-7.675,17.056-17.056v-30.701
		l-85.279,20.467V317.239z"/>
	<path style="fill:#D3D6DB;" d="M366.005,130.477c0-3.411-0.853-6.822-1.706-10.234c0-0.853,0-1.706,0-2.558
		c-1.706-8.528-4.264-16.203-7.675-23.878c-22.173-48.609-74.193-76.751-134.741-76.751c-79.31,0-144.975,47.756-144.975,127.919
		c-0.853,46.904,25.584,90.396,68.223,110.01l0,0c5.97,2.558,11.086,5.117,17.056,7.675l0,0c2.558,0.853,5.117,1.706,7.675,2.558
		c1.706,0,2.558,0.853,4.264,0.853c2.558,0.853,4.264,0.853,6.822,1.706c3.411,0.853,6.822,1.706,10.234,1.706
		c1.706,0,3.411,0,4.264,0.853c2.558,0,5.97,0.853,8.528,0.853c1.706,0,2.558,0,4.264,0c4.264,0,8.528,0.853,12.792,0.853
		c4.264,0,9.381,0,13.645-0.853c1.706,0,3.411,0,5.117-0.853c2.558,0,5.117-0.853,8.528-0.853c2.558,0,4.264-0.853,6.822-0.853
		c2.558,0,4.264-0.853,6.822-0.853c2.558-0.853,5.117-0.853,6.822-1.706c1.706-0.853,3.411-0.853,5.117-1.706
		c2.558-0.853,5.117-1.706,7.675-2.558c1.706-0.853,2.558-0.853,4.264-1.706c2.558-0.853,5.117-2.558,7.675-3.411
		c0.853-0.853,1.706-0.853,2.558-1.706c2.558-1.706,5.97-2.558,8.528-4.264c0.853,0,0.853-0.853,1.706-0.853
		c2.558-1.706,5.97-3.411,8.528-5.97c5.117-3.411,9.381-6.822,13.645-11.086c0.853-0.853,1.706-0.853,1.706-1.706
		c1.706-1.706,3.411-3.411,5.117-5.117c0.853-0.853,1.706-1.706,1.706-2.558c1.706-1.706,3.411-4.264,5.117-5.97
		c0,0.853-0.853,0.853-0.853,1.706c3.411-4.264,6.822-9.381,9.381-14.497c0.853-0.853,0.853-1.706,1.706-2.558
		c0.853-2.558,2.558-4.264,3.411-6.822c0.853-1.706,1.706-3.411,1.706-5.117c0.853-2.558,1.706-5.117,2.558-7.675
		c0.853-2.558,1.706-5.117,2.558-8.528c0-1.706,0.853-3.411,0.853-4.264c0.853-2.558,0.853-5.97,1.706-8.528
		c0-1.706,0-2.558,0.853-4.264c0-4.264,0.853-8.528,0.853-12.792C366.858,140.711,366.858,135.594,366.005,130.477z
		 M196.299,238.782c-52.02,0-93.807-41.787-93.807-93.807c0,0,42.64-34.112,85.279-34.112s102.335,34.112,102.335,34.112
		C290.106,196.995,248.319,238.782,196.299,238.782z"/>
</g>
<g>
	<path style="fill:#5EC2FF;" d="M102.492,144.975c0,52.02,41.787,93.807,93.807,93.807s93.807-41.787,93.807-93.807
		c0,0-59.696-34.112-102.335-34.112S102.492,144.975,102.492,144.975z"/>
	<path style="fill:#5EC2FF;" d="M204.827,307.006h51.168c9.381,0,17.056,7.675,17.056,17.056v25.584
		c0,9.381-7.675,17.056-17.056,17.056h-51.168c-9.381,0-17.056-7.675-17.056-17.056v-25.584
		C187.771,314.681,195.446,307.006,204.827,307.006z"/>
</g>
<path style="fill:#D3D6DB;" d="M400.969,136.447L400.969,136.447c37.523,0,68.223-30.701,68.223-68.223V0h34.112v68.223
	c0,56.284-46.051,102.335-102.335,102.335l0,0V136.447z"/>
<path d="M298.634,144.975c0-56.284-46.051-102.335-102.335-102.335S93.964,88.69,93.964,144.975S140.015,247.31,196.299,247.31
	S298.634,201.259,298.634,144.975z M196.299,59.696c40.934,0,76.751,29.848,83.574,70.782
	c-20.467-11.086-60.548-28.142-92.102-28.142c-28.995,0-57.99,14.497-75.046,24.731C121.253,87.838,156.218,59.696,196.299,59.696z
	 M196.299,230.254c-45.198,0-82.721-35.817-85.279-81.015c10.234-7.675,43.492-29.848,76.751-29.848s79.31,23.025,93.807,30.701
	C279.02,195.29,241.497,230.254,196.299,230.254z"/>
<path d="M255.994,298.478h-51.168c-14.497,0-25.584,11.086-25.584,25.584v25.584c0,14.497,11.086,25.584,25.584,25.584h51.168
	c14.497,0,25.584-11.086,25.584-25.584v-25.584C281.578,309.564,270.492,298.478,255.994,298.478z M264.522,349.645
	c0,5.117-3.411,8.528-8.528,8.528h-51.168c-5.117,0-8.528-3.411-8.528-8.528v-25.584c0-5.117,3.411-8.528,8.528-8.528h51.168
	c5.117,0,8.528,3.411,8.528,8.528V349.645z"/>
<path d="M494.777,68.223c0,48.609-36.67,88.69-85.279,92.954v-17.056c39.228-4.264,68.223-37.523,68.223-75.899V0h-17.056v68.223
	c0,29.848-22.173,54.579-51.168,58.843v-16.203c0-14.497-11.086-25.584-25.584-25.584h-22.173
	C338.715,38.376,287.548,8.528,221.883,8.528c-90.396,0-153.503,56.284-153.503,136.447c-0.853,41.787,18.761,81.015,52.873,105.746
	l-74.193,15.35c-19.614,3.411-34.112,20.467-33.259,40.934c0,25.584,17.056,40.081,46.904,40.081l0,0l81.868-4.264
	c2.558,10.234,6.822,20.467,11.939,29.848l25.584,46.051c6.822,11.939,14.497,22.173,23.878,31.553l44.345,44.345
	c18.761,18.761,48.609,23.025,71.635,9.381l22.173-12.792c15.35,8.528,34.112,9.381,51.168,3.411l46.904-18.761
	c5.117,14.497,21.32,23.025,35.817,17.056c11.086-4.264,18.761-14.497,18.761-26.437v-57.137c0-9.381-7.675-17.056-17.056-17.056
	h-34.112l0,0c-0.853,0-1.706,0-1.706,0L395,403.371l-59.696-59.696c-3.411-3.411-5.117-6.822-7.675-10.234
	c0-0.853-0.853-0.853-0.853-1.706h57.137c14.497,0,25.584-11.086,25.584-25.584v-23.878l34.965-8.528
	c22.173-4.264,36.67-25.584,33.259-47.756c-3.411-22.173-25.584-36.67-47.756-33.259l0,0l-20.467,5.117v-19.614
	c57.99-4.264,102.335-52.873,102.335-110.01V0h-17.056L494.777,68.223L494.777,68.223z M85.436,144.975
	c0-69.929,56.284-119.391,136.447-119.391S358.33,75.046,358.33,144.975s-56.284,119.391-136.447,119.391
	S85.436,214.904,85.436,144.975z M324.218,285.686v-35.817c9.381-6.822,17.056-14.497,23.878-23.878l12.792-2.558l-26.437,58.843
	L324.218,285.686z M59.852,330.031c-26.437,0-29.848-13.645-29.848-23.025c0-11.939,8.528-21.32,19.614-23.878l40.081-8.528
	l25.584,52.02L59.852,330.031z M134.045,325.767l-27.289-54.579l29.848-5.97v36.67c0,7.675,0.853,16.203,1.706,23.878H134.045z
	 M477.721,466.478c0,5.97-5.117,11.086-11.086,11.086c-5.117,0-9.381-3.411-11.086-7.675l-3.411-11.086v-49.462h25.584V466.478z
	 M403.528,436.63l11.939-11.939l-5.97-6.822l25.584-6.822v46.904l-48.609,19.614c-16.203,5.97-34.112,2.558-46.051-9.381
	l-61.401-61.401l-11.939,11.939l60.548,60.548l-16.203,9.381c-17.056,9.381-37.523,6.822-51.168-6.822l-44.345-44.345
	c-8.528-8.528-15.35-17.909-21.32-28.142L169.01,363.29c-10.234-18.761-15.35-40.081-16.203-62.254V268.63
	c22.173,8.528,45.198,12.792,68.223,12.792c29.848,0.853,58.843-6.822,85.279-20.467v56.284c0,15.35,5.97,28.995,16.203,40.081
	L403.528,436.63z M392.441,307.006c0,5.117-3.411,8.528-8.528,8.528h-59.696v-11.939l68.223-16.203V307.006z M432.523,210.64
	c12.792-2.558,25.584,6.822,27.289,19.614s-6.822,25.584-19.614,27.289l-84.427,20.467l25.584-57.99L432.523,210.64z
	 M360.888,206.376c9.381-18.761,14.497-40.081,14.497-61.401c0-14.497-1.706-28.995-6.822-42.64h15.35
	c5.117,0,8.528,3.411,8.528,8.528v90.396L360.888,206.376z"/>
<rect x="315.699" y="127.919" width="17.056" height="42.64"/>
<rect x="17.221" width="17.056" height="17.056"/>
<rect x="0.156" y="17.056" width="17.056" height="17.056"/>
<rect x="34.277" y="17.056" width="17.056" height="17.056"/>
<rect x="17.221" y="34.112" width="17.056" height="17.056"/>
<rect x="0.156" y="162.031" width="17.056" height="17.056"/>
<rect x="477.729" y="298.478" width="17.056" height="17.056"/>
<rect x="460.673" y="315.533" width="17.056" height="17.056"/>
<rect x="494.785" y="315.533" width="17.056" height="17.056"/>
<rect x="477.729" y="332.589" width="17.056" height="17.056"/>
<rect x="102.5" y="400.813" width="17.056" height="17.056"/>
<rect x="85.444" y="417.869" width="17.056" height="17.056"/>
<rect x="119.556" y="417.869" width="17.056" height="17.056"/>
<rect x="102.5" y="434.925" width="17.056" height="17.056"/>
<rect x="34.277" y="469.036" width="17.056" height="17.056"/>
<rect x="162.196" y="494.62" width="17.056" height="17.056"/>
<rect x="0.156" y="358.173" width="17.056" height="17.056"/>
<g>
</g>
<g>
</g>
<g>
</g>
<g>
</g>
<g>
</g>
<g>
</g>
<g>
</g>
<g>
</g>
<g>
</g>
<g>
</g>
<g>
</g>
<g>
</g>
<g>
</g>
<g>
</g>
<g>
</g>
</svg>
